<svg viewBox="0 0 1024 1194.667" version="1.1" xmlns="http://www.w3.org/2000/svg"><path  fill-rule="evenodd" d="M661.331584 0C696.6651477333332 0 745.9971968 20.667040213333333 770.6658858666666 45.333077333333335L978.6642816 253.3329224533333C1003.3316394666667 278.00029312 1024 327.33370112 1024 362.66728575999997L1024 1130.6680490666665C1024 1166.0002986666666 995.3336490666667 1194.6666666666665 959.9974143999999 1194.6666666666665L64 1194.6666666666665C28.666351530666663 1194.6666666666665 0 1166.0002986666666 0 1130.6680490666665L0 64C0 28.666367530666665 28.667684991999998 0 64 0L661.331584 0ZM224 522.6666666666666L138.66666666666666 522.6666666666666 138.66666666666666 818.6666666666666 309.3333333333333 818.6666666666666 309.3333333333333 605.3333333333333 224 605.3333333333333 224 522.6666666666666ZM245.33333333333331 669.3333333333333L245.33333333333331 754.6666666666666 202.66666666666666 754.6666666666666 202.66666666666666 669.3333333333333 245.33333333333331 669.3333333333333ZM309.3333333333333 437.3333333333333L224 437.3333333333333 224 522.6666666666666 309.3333333333333 522.6666666666666 309.3333333333333 437.3333333333333ZM224 352L138.66666666666666 352 138.66666666666666 437.3333333333333 224 437.3333333333333 224 352ZM309.3333333333333 266.66666666666663L224 266.66666666666663 224 352 309.3333333333333 352 309.3333333333333 266.66666666666663ZM682.6666666666666 90.66615466666667L682.6666666666666 341.33352362666665 933.3325610666667 341.33352362666665C929.3322325333334 329.9992546133333 923.3317418666667 318.66631850666664 918.6646911999999 313.9992661333333L709.9995776000001 105.33269930666667C705.3325269333333 100.66564736 693.9982634666667 94.66648490666667 682.6666666666666 90.66615466666667ZM224 181.33333333333331L138.66666666666666 181.33333333333331 138.66666666666666 266.66666666666663 224 266.66666666666663 224 181.33333333333331ZM309.3333333333333 96L224 96 224 181.33333333333331 309.3333333333333 181.33333333333331 309.3333333333333 96Z"/></svg>