<svg viewBox="0 0 1024 1024" version="1.1" xmlns="http://www.w3.org/2000/svg"><path  d="M872.2005344 454.6197344C868.4842656 256.2432 714.7029344 96 525.8666656 96L498.1333344 96C309.29706656 96 155.51573344 256.2432 151.79946656 454.592 118.6304 473.8112 96 509.2821344 96 550.2997344L96 605.7664C96 666.9461344 145.7536 716.6997344 206.93333344 716.6997344 268.11306656 716.6997344 317.86666656 666.9461344 317.86666656 605.7664L317.86666656 550.2997344C317.7785456 489.497792 268.78616896 440.0849856 207.9872 439.4773344 218.83093344 278.76266656 344.6570656 151.46666656 498.1333344 151.46666656L525.8666656 151.46666656C679.3706656 151.46666656 805.1690656 278.76266656 816.0128 439.4773344 755.2138304 440.0849856 706.2214528 489.497792 706.1333344 550.2997344L706.1333344 605.7664C706.1333344 655.8528 739.6906656 697.7856 785.3397344 711.5136 744.1415296 765.7429664 685.3117728 803.896976 618.9952 819.3962656 609.606016 791.2394976 583.2809152 772.2269248 553.6 772.1664 515.308256 772.1664 484.2666656 803.2079904 484.2666656 841.4997344 484.2666656 879.7914752 515.308256 910.8330656 553.6 910.8330656 577.6172576 910.8011136 599.8929248 898.2927104 612.4224 877.8026656 713.585648 860.1046336 801.8067392 798.720208 853.5637344 710.016 896.7722656 694.8736 928 654.1056 928 605.7664L928 550.2997344C928 509.2821344 905.3696 473.8112 872.2005344 454.6197344ZM262.4 550.2997344L262.4 605.7664C262.4 636.3562656 237.5232 661.2330656 206.93333344 661.2330656 176.34346656 661.2330656 151.46666656 636.3562656 151.46666656 605.7664L151.46666656 550.2997344C151.46666656 519.7098656 176.34346656 494.8330656 206.93333344 494.8330656 237.5232 494.8330656 262.4 519.7098656 262.4 550.2997344ZM872.5333344 605.7664C872.5333344 635.4965344 848.96 659.6522656 819.5626656 660.9834656L817.3994656 659.9573344C817.2053344 660.4010656 816.9002656 660.7616 816.7061344 661.1776 786.235248 660.9795488 761.6298272 636.2379136 761.6 605.7664L761.6 550.2997344C761.6 519.7098656 786.4768 494.8330656 817.0666656 494.8330656 847.6565344 494.8330656 872.5333344 519.7098656 872.5333344 550.2997344L872.5333344 605.7664Z"/></svg>