<svg viewBox="0 0 1024 1303.273" version="1.1" xmlns="http://www.w3.org/2000/svg"><path  d="M664.4363636363637 0C676.8000000000001 0 688.5818181818182 4.945454545454545 697.3090909090909 13.672727272727274L697.3090909090909 13.672727272727274 1010.3272727272728 326.6909090909091C1019.0545454545455 335.41818181818184 1024 347.3454545454546 1024 359.70909090909095L1024 359.70909090909095 1024 1256.7272727272727C1024 1282.4727272727273 1003.2 1303.2727272727273 977.4545454545455 1303.2727272727273L977.4545454545455 1303.2727272727273 46.54545454545455 1303.2727272727273C20.8 1303.2727272727273 0 1282.4727272727273 0 1256.7272727272727L0 1256.7272727272727 0 46.54545454545455C0 20.8 20.8 0 46.54545454545455 0L46.54545454545455 0ZM655.2545466181818 560.2713367272728L460.52727249454546 619.8349730909091C436.9818181818182 626.5804288 417.7636361309091 651.1440616727273 417.7636361309091 674.6895173818182L417.7636361309091 880.1077015272728C417.7636361309091 880.1077015272728 403.6363636363636 870.5622434909092 372.19999976727274 875.0167924363637 326 881.6349742545455 288.5818181818182 917.016790109091 288.5818181818182 954.1804264727273 288.5818181818182 991.3440628363637 326 1014.1258798545455 372.19999976727274 1007.5076980363638 418.4 1001.016790109091 452.2545454545455 966.6531560727274 452.2545454545455 929.4895197090908L452.2545454545455 754.1076992000001C452.2545454545455 737.5622469818182 472.10908858181824 730.562243490909 472.10908858181824 730.562243490909L644.3090897454546 676.5986071272727C644.3090897454546 676.5986071272727 663.4000011636364 670.2349730909091 663.4000011636364 687.7986071272728L663.4000011636364 828.689519709091C663.4000011636364 828.689519709091 645.8363624727273 818.6349707636364 614.4 822.4531549090909 568.2000011636363 828.053154909091 530.7818170181819 862.6713367272728 530.7818170181819 899.8349730909091 530.7818170181819 936.9986094545455 568.2000011636363 960.5440651636363 614.4 954.9440651636363 660.5999988363636 949.3440651636365 698.0181829818182 914.7258833454546 698.0181829818182 877.5622469818182L698.0181829818182 590.8167912727273C698.0181829818182 567.1440616727273 678.9272715636364 553.5258810181818 655.2545466181818 560.2713367272728ZM642.9090909090909 107.34545454545454L642.9090909090909 381.0909090909091 916.6545454545455 381.0909090909091 642.9090909090909 107.34545454545454Z"/></svg>