<svg viewBox="0 0 24 24" version="1.1" xmlns="http://www.w3.org/2000/svg"><path d="M23.7 11.475l-5.25-5.25c-0.3-0.3-0.765-0.3-1.065 0s-0.3 0.765 0 1.065l4.725 4.71-4.725 4.725c-0.3 0.3-0.3 0.765 0 1.065 0.15 0.15 0.345 0.225 0.525 0.225s0.39-0.075 0.525-0.225l5.25-5.25c0.3-0.3 0.3-0.78 0.015-1.065z"/><path d="M6.615 6.225c-0.3-0.3-0.765-0.3-1.065 0l-5.25 5.25c-0.3 0.3-0.3 0.765 0 1.065l5.25 5.25c0.15 0.135 0.345 0.21 0.54 0.21s0.39-0.075 0.525-0.225c0.3-0.3 0.3-0.765 0-1.065l-4.725-4.71 4.725-4.725c0.285-0.285 0.285-0.765 0-1.050z"/><path d="M14.445 3.030c-0.39-0.12-0.81 0.12-0.915 0.525l-4.5 16.5c-0.105 0.405 0.12 0.81 0.525 0.915 0.060 0.015 0.135 0.030 0.195 0.030 0.33 0 0.63-0.225 0.72-0.555l4.5-16.5c0.105-0.39-0.12-0.81-0.525-0.915z"/></svg>