<svg viewBox="0 0 64 64" version="1.1" xmlns="http://www.w3.org/2000/svg"><circle cx="32" cy="32" r="6" fill="#737987"/><path fill="#737987" d="M53.8,34.9c0.3-1.9,0.3-3.9,0-5.8l4.2-3.6c0.6-0.5,0.9-1.4,0.6-2.2c-1.2-3.7-3.2-7.2-5.8-10.1	c-0.4-0.4-0.9-0.7-1.5-0.7c-0.2,0-0.5,0-0.7,0.1l-5.2,1.9c-1.5-1.2-3.3-2.2-5.1-2.9l-1-5.4c-0.1-0.8-0.8-1.4-1.6-1.6	c-3.8-0.8-7.8-0.8-11.6,0c-0.8,0.2-1.4,0.8-1.5,1.6l-1,5.4c-1.8,0.7-3.5,1.7-5.1,2.9l-5.2-1.9c-0.2-0.1-0.4-0.1-0.7-0.1	c-0.6,0-1.1,0.2-1.5,0.7c-2.6,2.9-4.6,6.3-5.8,10.1c-0.3,0.8,0,1.7,0.6,2.2l4.2,3.6C10,31,10,33,10.2,34.9L6,38.5	c-0.6,0.5-0.9,1.4-0.6,2.2c1.2,3.7,3.2,7.2,5.8,10.1c0.4,0.4,0.9,0.7,1.5,0.7c0.2,0,0.5,0,0.7-0.1l5.2-1.9c1.5,1.2,3.3,2.2,5.1,2.9	l1,5.4c0.1,0.8,0.8,1.4,1.6,1.6c3.8,0.8,7.8,0.8,11.6,0c0.8-0.2,1.4-0.8,1.6-1.6l1-5.4c1.8-0.7,3.5-1.7,5.1-2.9l5.2,1.9	c0.2,0.1,0.4,0.1,0.7,0.1c0.6,0,1.1-0.2,1.5-0.7c2.6-2.9,4.6-6.3,5.8-10.1c0.2-0.8,0-1.7-0.7-2.2L53.8,34.9z M32,42	c-5.5,0-10-4.5-10-10s4.5-10,10-10s10,4.5,10,10S37.5,42,32,42z"/></svg>