<?xml version="1.0" encoding="UTF-8"?>
<svg width="32px" height="32px" viewBox="0 0 32 32" version="1.1" xmlns="http://www.w3.org/2000/svg" xmlns:xlink="http://www.w3.org/1999/xlink">
    <title>Icon/复制</title>
    <g id="Icon/复制" stroke="none" stroke-width="1" fill="none" fill-rule="evenodd">
        <path d="M27.9166667,3 C28.5146667,3 29,3.48533333 29,4.08333333 L29,23.5833333 C29,24.1813333 28.5146667,24.6666667 27.9166667,24.6666667 L24.6666667,24.6666667 L24.6666667,27.9166667 C24.6666667,28.5146667 24.1813333,29 23.5833333,29 L4.08333333,29 C3.48533333,29 3,28.5146667 3,27.9166667 L3,8.41666667 C3,7.81866667 3.48533333,7.33333333 4.08333333,7.33333333 L7.33333333,7.33333333 L7.33333333,4.08333333 C7.33333333,3.48533333 7.81866667,3 8.41666667,3 Z M22.5,9.5 L5.16666667,9.5 L5.16666667,26.8333333 L22.5,26.8333333 L22.5,9.5 Z M19.5454545,20.7272727 L19.5454545,23.0909091 L7.72727273,23.0909091 L7.72727273,20.7272727 L19.5454545,20.7272727 Z M26.8333333,5.16666667 L9.5,5.16666667 L9.5,7.33333333 L23.5833333,7.33333333 C24.1813333,7.33333333 24.6666667,7.81866667 24.6666667,8.41666667 L24.6666667,22.5 L26.8333333,22.5 L26.8333333,5.16666667 Z M19.5454545,17.1818182 L19.5454545,19.5454545 L7.72727273,19.5454545 L7.72727273,17.1818182 L19.5454545,17.1818182 Z M19.5454545,13.6363636 L19.5454545,16 L7.72727273,16 L7.72727273,13.6363636 L19.5454545,13.6363636 Z" id="蒙版" fill="#63656E"></path>
    </g>
</svg>