<svg viewBox="0 0 1024 1097.143" version="1.1" xmlns="http://www.w3.org/2000/svg"><path  d="M698.6979072 34.411393901714284C704.0406784 39.04304329142857 707.1085714285714 45.76605271771429 707.1085714285714 52.83693527771428L707.1085714285714 1069.3276013714285C707.1085714285714 1076.3886738285712 704.0452278857143 1083.1024822857141 698.7138852571428 1087.7323337142855 693.3825389714286 1092.362185142857 686.3058176 1094.453295542857 679.3142857142858 1093.4647442285714L66.27961892571427 1005.9371263999999C42.24804234971429 1002.5144795428571 24.393142857142855 981.9369252571428 24.393142857142855 957.6628406857142L24.393142857142855 164.50169709714285C24.393142857142855 140.22761252571428 42.24804234971429 119.65005750857142 66.27961892571427 116.22741138285714L66.32838107428572 116.22741138285714 679.2655250285715 28.699792423131427C686.2647552000001 27.695727027199997 693.355136 29.77974452662857 698.6979072 34.411393901714284ZM950.9180964571428 122.22512566857142C977.8485504 122.22512566857142 999.68 144.05657417142857 999.68 170.9870306742857L999.68 951.1775049142856C999.68 978.1079625142856 977.8485504 999.9394121142856 950.9180964571428 999.9394121142856L755.8704749714285 999.9394121142856 755.8704749714285 902.4156013714285 902.1561892571428 902.4156013714285 902.1561892571428 219.7489353142857 755.8704749714285 219.7489353142857 755.8704749714285 122.22512566857142 950.9180964571428 122.22512566857142ZM268.25142857142856 366.03464959999997L170.72761892571427 366.03464959999997 170.72761892571427 756.1298870857141 268.25142857142856 756.1298870857141 365.7752382171428 658.606076342857 463.2990464 756.1298870857141 560.8228571428571 756.1298870857141 560.8228571428571 366.03464959999997 463.2990464 366.03464959999997 463.2990464 609.3077906285713 365.7752382171428 512.3203620571429 268.73904749714285 609.8441727999999 268.25142857142856 366.03464959999997Z"/></svg>