<svg viewBox="0 0 1024 1097.143" version="1.1" xmlns="http://www.w3.org/2000/svg"><path  d="M698.6369535999999 21.90055387428571C703.9797248 26.53220315428571 707.0476178285713 33.25521261714285 707.0476178285713 40.326095360000004L707.0476178285713 1056.8167606857141C707.0476178285713 1063.8778368 703.9842779428571 1070.5916416 698.6529316571427 1075.2214930285713 693.3215890285713 1079.8513481142857 686.2448676571429 1081.9424548571428 679.2533321142857 1080.953903542857L66.21866678857141 993.4262857142858C42.18708992 990.0036388571428 24.332190354285718 969.4260845714285 24.332190354285718 945.152L24.332190354285718 151.99085714285712C24.332190354285718 127.71677257142855 42.18708992 107.13921718857142 66.21866678857141 103.71657142857141L66.26742857142857 103.71657142857141 679.2045714285714 16.188952502857138C686.2038015999999 15.18488685714286 693.2941824 17.26890459428571 698.6369535999999 21.90055387428571ZM950.8571428571428 109.71428571428571C977.7876004571428 109.71428571428571 999.6190463999999 131.54573421714286 999.6190463999999 158.4761903542857L999.6190463999999 938.6666678857142C999.6190463999999 965.5971218285714 977.7876004571428 987.4285714285713 950.8571428571428 987.4285714285713L755.8095250285714 987.4285714285713 755.8095250285714 889.9047606857142 902.0952393142857 889.9047606857142 902.0952393142857 207.23809536 755.8095250285714 207.23809536 755.8095250285714 109.71428571428571 950.8571428571428 109.71428571428571ZM287.69523821714284 353.52381074285717L170.6666667885714 353.52381074285717 307.2 548.5714285714286 170.6666667885714 743.6190463999999 287.69523821714284 743.6190463999999 365.71428571428567 632.1493321142857 443.7333321142857 743.6190463999999 560.7619035428571 743.6190463999999 424.2285714285714 548.5714285714286 560.7619035428571 353.52381074285717 443.7333321142857 353.52381074285717 365.71428571428567 464.9935250285714 287.69523821714284 353.52381074285717Z"/></svg>