<?xml version="1.0" encoding="UTF-8"?>
<svg width="32px" height="32px" viewBox="0 0 32 32" version="1.1" xmlns="http://www.w3.org/2000/svg" xmlns:xlink="http://www.w3.org/1999/xlink">
    <title>Icon/置顶-线性</title>
    <g id="Icon/置顶-线性" stroke="none" stroke-width="1" fill="none" fill-rule="evenodd">
        <path d="M28.6657948,11.8560463 L20.1455431,3.33542567 C19.9301804,3.11987545 19.6377317,2.99914739 19.3330381,3.00000453 C19.0283445,2.9991474 18.7358958,3.11987546 18.5205332,3.33542567 L12.9499993,8.91010087 C12.527446,8.86248623 12.102518,8.8390469 11.6772916,8.8398974 C9.08218713,8.83596234 6.56346314,9.7179208 4.53764818,11.3399208 C4.28313469,11.5442879 4.12752839,11.8472466 4.10967004,12.1731756 C4.09181169,12.4991046 4.21338626,12.8172519 4.44404761,13.0482051 L10.7269858,19.3314153 L3.27794052,26.7729827 C3.1869977,26.8635164 3.13084567,26.9831898 3.11933957,27.1109993 L3.00233886,28.3980629 C2.98806437,28.5525979 3.03959138,28.7059914 3.14426394,28.820567 C3.2489365,28.9351426 3.39705619,29.0002845 3.5522422,28.9999936 C3.56914231,28.9999936 3.5860424,28.9999936 3.6042425,28.9960924 L4.89125032,28.8790866 C5.01922568,28.8672281 5.13891608,28.8106029 5.2292524,28.7191787 L12.6769977,21.2711111 L18.9599358,27.5543212 C19.1752985,27.7698714 19.4677472,27.8905995 19.7724408,27.8897378 C20.120749,27.8905486 20.4504539,27.7326279 20.6681462,27.4607166 C22.5636238,25.0892857 23.4369738,22.0607306 23.095261,19.0441011 L28.6657948,13.4733261 C29.1114017,13.0263239 29.1114017,12.3030485 28.6657948,11.8560463 Z M21.3311503,17.2903145 L20.4848451,18.1379564 L20.6148459,19.3275151 C20.8212208,21.1675148 20.4543719,23.0263569 19.5644395,24.6499778 L7.3560653,12.4332748 C8.97809576,11.5403656 10.8372498,11.1728795 12.6769977,11.3815229 L13.8665049,11.5128294 L14.7141101,10.6664876 L19.3369381,6.04345936 L25.9578784,12.6646862 L21.3311503,17.2916146 L21.3311503,17.2903145 Z" id="置顶" fill="#63656E"></path>
    </g>
</svg>