<?xml version="1.0" encoding="UTF-8"?>
<svg width="32px" height="32px" viewBox="0 0 32 32" version="1.1" xmlns="http://www.w3.org/2000/svg" xmlns:xlink="http://www.w3.org/1999/xlink">
    <title>Icon/置顶-填充</title>
    <g id="Icon/置顶-填充" stroke="none" stroke-width="1" fill="none" fill-rule="evenodd">
        <path d="M19.3330381,3.00000453 C19.6377317,2.99914739 19.9301804,3.11987548 20.1455431,3.33542574 L28.6657948,11.8560482 C29.1114017,12.3030505 29.1114017,13.026326 28.6657948,13.4733283 L23.095261,19.0441045 C23.4369738,22.0607346 22.5636238,25.0892903 20.6681462,27.4607218 C20.4504539,27.7326331 20.120749,27.8905538 19.7724408,27.889743 C19.4677472,27.8906047 19.1752985,27.7698767 18.9599358,27.5543264 L12.6769977,21.2711149 L5.2292524,28.7191841 C5.13891608,28.8106083 5.01922568,28.8672335 4.89125032,28.8790921 L3.6042425,28.9960979 C3.5860424,29.0000045 3.56914231,29.0000045 3.5522422,29.0000045 C3.39705619,29.00029 3.2489365,28.9351481 3.14426394,28.8205724 C3.03959138,28.7059968 2.98806437,28.5526033 3.00233886,28.3980682 L3.11933957,27.1110044 C3.13084567,26.9831949 3.1869977,26.8635214 3.27794052,26.7729877 L10.7269858,19.3314187 L4.44404761,13.0482073 C4.21338626,12.817254 4.09181169,12.4991066 4.10967004,12.1731775 C4.12752839,11.8472485 4.28313469,11.5442897 4.53764818,11.3399226 C6.56346314,9.71792222 9.08218713,8.83596356 11.6772916,8.83989863 C12.102518,8.83904813 12.527446,8.86248746 12.9499993,8.91010211 L18.5205332,3.33542574 C18.7358958,3.11987549 19.0283445,2.9991474 19.3330381,3.00000453 Z" id="已置顶" fill="#63656E"></path>
    </g>
</svg>