<svg viewBox="0 0 24 24" version="1.1" xmlns="http://www.w3.org/2000/svg"><path d="M21.75 7.5h-0.825c-0.361-1.724-1.869-3-3.674-3-0 0-0.001 0-0.001 0h-6.75v-0.75c0-1.243-1.007-2.25-2.25-2.25h-6c-1.243 0-2.25 1.007-2.25 2.25v15c0 2.071 1.679 3.75 3.75 3.75h16.5c0.009 0 0.020 0 0.031 0 1.2 0 2.177-0.952 2.219-2.141l1.5-10.609c0-1.243-1.007-2.25-2.25-2.25zM1.5 18.75v-15c0-0.414 0.336-0.75 0.75-0.75h6c0.414 0 0.75 0.336 0.75 0.75v1.5c0 0.414 0.336 0.75 0.75 0.75h7.5c0.971 0.003 1.798 0.621 2.11 1.484l-12.61 0.016c-0.009-0-0.020-0-0.031-0-1.2 0-2.177 0.952-2.219 2.141l-1.5 10.609c0.003 0.231 0.041 0.453 0.109 0.661-0.937-0.301-1.605-1.152-1.609-2.16zM21 20.25c0 0.414-0.336 0.75-0.75 0.75h-15c-0.002 0-0.005 0-0.007 0-0.377 0-0.689-0.278-0.742-0.641l1.5-10.609c0-0.414 0.336-0.75 0.75-0.75h15c0.002-0 0.005-0 0.007-0 0.377 0 0.689 0.278 0.742 0.641z"/></svg>