<svg viewBox="0 0 24 24" version="1.1" xmlns="http://www.w3.org/2000/svg"><path d="M4.74 9.87c0.042-1.318 1.12-2.37 2.444-2.37 0.011 0 0.022 0 0.033 0l13.318-0c0.004 0 0.009 0 0.014 0 0.166 0 0.3-0.134 0.3-0.3 0-0.032-0.005-0.063-0.015-0.092-0.497-1.524-1.908-2.608-3.572-2.608-0.004 0-0.009 0-0.013 0h-6.749v-0.75c0-1.243-1.007-2.25-2.25-2.25h-6c-1.243 0-2.25 1.007-2.25 2.25v15c-0 0.023-0.001 0.049-0.001 0.076 0 1.806 1.276 3.314 2.976 3.67 0.021-0.045 0.019-0.103 0.019-0.161s0.002-0.116 0.006-0.173z"/><path d="M22.5 9h-15.285c-0.538 0-0.975 0.437-0.975 0.975l-1.74 12.225c-0.010 0.045-0.015 0.097-0.015 0.15s0.006 0.105 0.016 0.155l16.499-0.005c0.828 0 1.5-0.672 1.5-1.5l1.5-10.5c0-0.828-0.672-1.5-1.5-1.5z"/></svg>