<svg class="bk-icon" style="width: 1em; height: 1em;vertical-align: middle;fill: currentColor;overflow: hidden;" viewBox="0 0 64 64" version="1.1" xmlns="http://www.w3.org/2000/svg"><g><g><g><g><g><g><g><path  fill="#727985" d="M32,4A28,28,0,1,1,4,32,28,28,0,0,1,32,4ZM30.87,25.16a9.75,9.75,0,0,0-4.82,2.64c-1.52,1.43.09,2.75,1,1.72a5.16,5.16,0,0,1,2.53-1.76c.69-.14,1.1.08,1.21.65A7.43,7.43,0,0,1,30.51,31q-.45,1.86-1.65,5.87-2.17,7.27-1.88,8.8a3.42,3.42,0,0,0,1.8,2.56,5.5,5.5,0,0,0,3.65.32,10.11,10.11,0,0,0,5-2.84c1.61-1.56-.22-2.69-1.08-1.75a4.77,4.77,0,0,1-2.46,1.63c-.89.18-1.42-.15-1.58-1A6.56,6.56,0,0,1,32.68,42Q36.39,29.32,36,27.49a2.89,2.89,0,0,0-1.6-2.1A5.6,5.6,0,0,0,30.87,25.16Zm4.24-2.49A3.12,3.12,0,1,0,32,19.56,3.11,3.11,0,0,0,35.11,22.67Z"/></g></g></g></g></g></g></g></svg>