

<svg class="bk-icon" style="width: 1em; height: 1em;vertical-align: middle;fill: currentColor;overflow: hidden;" viewBox="0 0 64 64" version="1.1" xmlns="http://www.w3.org/2000/svg">

<g>
	<path  fill="#737987" d="M32,4C16.5,4,4,16.5,4,32s12.5,28,28,28s28-12.5,28-28S47.5,4,32,4z M32,56C18.7,56,8,45.3,8,32
		S18.7,8,32,8s24,10.7,24,24S45.3,56,32,56z"/>
	<path  fill="#737987" d="M30.9,25.2c-1.8,0.4-3.5,1.3-4.8,2.6c-1.5,1.4,0.1,2.8,1,1.7c0.6-0.8,1.5-1.4,2.5-1.8
		c0.7-0.1,1.1,0.1,1.2,0.6c0.1,0.9,0,1.7-0.3,2.6c-0.3,1.2-0.9,3.2-1.6,5.9c-1.4,4.8-2.1,7.8-1.9,8.8c0.2,1.1,0.8,2,1.8,2.6
		c1.1,0.5,2.4,0.6,3.6,0.3c1.9-0.4,3.6-1.4,5-2.8c1.6-1.6-0.2-2.7-1.1-1.8c-0.6,0.8-1.5,1.4-2.5,1.6c-0.9,0.2-1.4-0.2-1.6-1
		c-0.1-0.9,0.1-1.8,0.4-2.6c2.5-8.5,3.6-13.3,3.3-14.5c-0.2-0.9-0.8-1.7-1.6-2.1C33.3,24.9,32,24.9,30.9,25.2z"/>
	<circle  fill="#737987" cx="35" cy="19" r="3"/>
</g>
</svg>
