<svg viewBox="0 0 1024 1024" version="1.1" xmlns="http://www.w3.org/2000/svg"><g ><path d="M896 176H128a64 64 0 0 0-64 64V784a64 64 0 0 0 64 64H896a64 64 0 0 0 64-64V240A64 64 0 0 0 896 176Zm0 608H128V240H896Z"/><path d="M327.84 649.28h52.64V373.28H337.76A97.12 97.12 0 0 1 304 417.28a150.56 150.56 0 0 1-44.8 25.6v48a182.56 182.56 0 0 0 68.16-40Z"/><path d="M480.64 450.24H533.28V502.88H480.64V450.24z"/><path d="M480.64 596.64H533.28V649.28H480.64V596.64z"/><path d="M669.28 649.28h52.64V373.28H679.2a97.12 97.12 0 0 1-33.28 44 150.56 150.56 0 0 1-44.8 25.6v48a182.56 182.56 0 0 0 68.16-40Z"/></g></svg>