<svg viewBox="0 0 1024 1303.273" version="1.1" xmlns="http://www.w3.org/2000/svg"><path  fill-rule="evenodd" d="M1010.3272727272728 326.8363636363636C1019.0545454545455 335.56363636363636 1024 347.3454545454546 1024 359.70909090909095L1024 1256.7272727272727C1024 1282.4727272727273 1003.2 1303.2727272727273 977.4545454545455 1303.2727272727273L46.54545454545455 1303.2727272727273C20.80000000000002 1303.2727272727273 0 1282.4727272727273 0 1256.7272727272727L0 46.54545454545455C0 20.799999999999997 20.80000000000002 0 46.54545454545455 0L664.2909090909092 0C676.6545454545455 0 688.5818181818182 4.945454545454554 697.3090909090909 13.67272727272728L1010.3272727272728 326.8363636363636ZM916.6545454545455 381.0909090909091L642.9090909090909 107.34545454545456 642.9090909090909 381.0909090909091 916.6545454545455 381.0909090909091ZM688.3156340363636 833.8269090909091C666.2443659636364 833.1156340363638 642.7679976727273 834.8014545454546 616.0974568727273 838.1381818181819 580.7549114181819 816.3389114181817 556.9643659636364 786.3825454545455 540.0625477818182 742.389820509091 540.4698158545455 740.714179490909 541.3134568727273 737.2436386909092 541.6087272727273 736.0189114181819 542.2981818181819 733.1709114181818 542.8698158545455 730.7912750545455 543.4167295999999 728.4770909090909 549.661090909091 702.1061818181818 553.0385454545456 682.8654545454546 554.0349114181819 663.4661841454545 554.788361309091 648.8130932363637 553.9767249454546 635.2945477818182 551.3774545454546 622.7738205090909 546.5803636363637 595.7425477818182 527.4443636363637 579.933090909091 503.3469067636364 578.9541841454546 480.8799976727273 578.0421818181818 460.2210909090909 590.5803636363637 454.9381818181818 610.0421818181818 446.33745221818185 641.4778181818182 451.37454545454545 682.8712727272729 469.6 753.4341818181819 446.3796363636364 808.7883636363637 415.70618181818185 873.6683659636363 395.1229067636363 909.8545477818182 367.65381818181817 924.021820509091 346.2443659636364 936.9163636363637 328.28218181818187 951.2029090909091 304.5687296 970.0625454545454 289.7658181818182 989.4429090909091 285.6843636363637 1009.8298181818183 283.71345221818177 1019.2552727272729 286.69090909090914 1031.5985454545455 293.4807272727272 1041.7018181818182 301.184 1053.1621841454546 312.8 1060.597820509091 326.7243659636364 1061.6800023272726 361.85454312727273 1064.4101818181819 405.02254312727274 1028.1905477818182 452.6734522181818 946.3956386909091 457.4661818181818 944.8101841454546 462.5352704 943.1127272727273 468.71127040000005 941.0283659636364 472.09018181818186 939.8894545454546 483.9316340363637 935.8821841454546 486.0349114181819 935.1723659636364 496.9745454545455 931.4778205090909 504.9149114181818 928.8305477818183 512.7636340363636 926.2763659636363 546.7941794909092 915.2043659636364 572.5396340363636 908.1978181818182 595.9781794909092 904.221090909091 636.6661818181818 926.0000023272728 683.7105477818181 940.288 715.3934522181818 940.288 741.5447272727273 940.288 759.2130885818183 926.7330932363637 765.5970909090909 905.4007296 771.2072704000001 886.6574568727273 766.7520000000001 864.9294568727273 754.7272704 852.9149114181819 742.2763613090909 840.6821841454545 719.3818205090909 834.8290932363636 688.3156340363636 833.8269090909091L688.3156340363636 833.8269090909091ZM327.61017716363637 1020.6196363636365L327.61017716363637 1020.0960000000001 327.79345454545455 1019.6043636363636C329.6479976727273 1014.6283613090909 332.38545221818185 1009.4109090909092 335.93890909090914 1003.9563636363637 342.17018181818185 994.3912727272727 350.7359976727273 984.32 361.3527272727273 973.6072704000001 367.0545454545455 967.8545454545455 372.992 962.2618158545456 379.9563636363637 955.9781794909092 381.5170885818182 954.5687272727273 391.46181818181816 945.7105454545456 393.32217949090904 943.9781841454546L409.5781794909091 928.8407272727272 397.76727040000003 947.6538181818181C379.8385431272727 976.2181818181818 363.6436340363636 996.7883636363637 349.74836363636365 1010.2050909090909 344.64727039999997 1015.1316340363637 340.1483636363636 1018.7869090909091 336.52508858181824 1021.121452218182 335.0312727272727 1022.0843613090909 333.7381794909091 1022.7854522181817 332.72436363636365 1023.1927249454546 332.1294522181818 1023.4298181818182 331.6029067636364 1023.5825431272726 331.0807272727273 1023.6319976727274 330.5281303272728 1023.6968587636364 329.9681698909091 1023.6166516363637 329.4559976727273 1023.3992704 328.3361233454546 1022.9301666909092 327.6080779636364 1021.8337931636364 327.61017716363637 1020.6196363636365ZM510.7869090909091 703.1374568727272L507.4996363636364 708.9658181818182 505.47781818181824 702.5876340363636C500.94836363636364 688.2909090909092 497.6421841454545 666.7461818181819 496.72727272727275 647.3192727272727 495.6858181818182 625.2145431272728 497.44000000000005 611.9403659636364 504.416 611.9403659636364 514.2196363636363 611.9403659636364 518.715638690909 627.6610885818181 519.072 651.2901818181818 519.3861818181817 672.0610909090909 516.1192727272727 693.6785454545454 510.7869090909091 703.1374568727272ZM502.336 788.1760023272727L504.5672727272727 782.2850932363638 507.60436363636364 787.805090909091C524.6080000000001 818.7069114181819 546.6705454545455 844.4843659636364 570.9323636363636 862.4450932363636L576.1614522181818 866.3170932363636 569.7905431272727 867.6320023272727C546.0407296000001 872.5367296000001 523.9083659636365 879.9330909090909 493.6596340363636 892.1294568727272 496.82181585454543 890.8552750545455 462.20799999999997 905.021090909091 453.45890676363643 908.3752727272728L445.81963403636365 911.3032750545455 449.89527039999996 904.2094545454546C467.85891141818183 872.9425454545456 484.452361309091 835.3716363636364 502.3345477818182 788.1760023272727L502.336 788.1760023272727ZM731.6101818181818 899.1010909090909C720.1716363636365 903.616 695.5709067636365 899.5796340363637 652.2370932363636 881.0836340363636L641.2392727272727 876.3898181818182 653.1650885818183 875.5069067636365C687.0487272727273 872.9992704 711.0661818181818 874.8669067636364 725.0516340363637 879.9869067636363 731.0007249454545 882.165820509091 734.9774522181818 884.9149114181819 736.7418181818182 888.064 738.6472727272728 891.4618181818182 737.7745454545455 895.0603636363637 734.7607272727273 897.2421818181818 734.109090909091 897.8632704 733.0807295999999 898.5221818181819 731.6101818181818 899.1010909090909L731.6101818181818 899.1010909090909Z"/></svg>