<svg viewBox="0 0 22 24" version="1.1" xmlns="http://www.w3.org/2000/svg"><path d="M6.75 24h-0.66c-1.263-0.014-2.422-0.452-3.342-1.179-0.387-0.372-0.635-0.907-0.635-1.501 0-0.028 0.001-0.057 0.002-0.085 0.004-0.253 0.065-0.495 0.169-0.711-0.004 0.007-0.004 0.004-0.004 0 0-0.397 0.154-0.758 0.406-1.026 0.181-0.217 0.389-0.406 0.619-0.563-0.169-0.258-0.348-0.548-0.509-0.848-0.371 0.425-0.905 0.74-1.513 0.796-0.422-0.029-0.767-0.298-0.906-0.667-1.112-3.007 0.568-5.692 1.873-7.222-0.007-0.070-0.011-0.151-0.011-0.232s0.004-0.163 0.012-0.243c-0.008-0.058-0.012-0.137-0.012-0.216 0-0.408 0.11-0.79 0.302-1.119 0.009-0.505 0.23-0.966 0.578-1.294 0.043-4.367 3.593-7.891 7.966-7.891 0.011 0 0.021 0 0.032 0 2.243 0.027 4.263 0.964 5.711 2.458 1.404 1.402 2.295 3.314 2.372 5.433 0.482 0.621 0.774 1.399 0.774 2.244 0 0.273-0.030 0.539-0.088 0.795 1.1 1.386 2.885 4.371 1.505 7.386-0.161 0.371-0.523 0.627-0.945 0.63h-0c-0.595-0.1-1.093-0.45-1.39-0.936-0.181 0.336-0.356 0.626-0.547 0.903 0.309 0.149 0.557 0.364 0.763 0.614 0.246 0.255 0.402 0.59 0.424 0.961 0.1 0.21 0.161 0.452 0.165 0.708 0.001 0.026 0.002 0.054 0.002 0.082 0 0.593-0.248 1.129-0.646 1.509-0.909 0.719-2.068 1.157-3.328 1.171-0.218 0.026-0.467 0.040-0.72 0.040-1.424 0-2.738-0.465-3.801-1.253l-0.718 0.012c-1.014 0.779-2.302 1.248-3.699 1.248-0.071 0-0.141-0.001-0.211-0.004zM4.020 20.34l0.39 0.24-0.825 0.66c0.018 0.177 0.083 0.336 0.182 0.467 0.671 0.492 1.515 0.789 2.428 0.793 0.206 0.031 0.442 0.049 0.682 0.049 1.14 0 2.186-0.404 3.002-1.076l0.217-0.204h0.465c0.139 0.010 0.301 0.016 0.465 0.016s0.326-0.006 0.487-0.017l0.308 0.001 0.24 0.225c0.803 0.668 1.846 1.074 2.983 1.074 0.25 0 0.495-0.020 0.734-0.057-0.014 0.004-0 0.004 0.014 0.004 0.904 0 1.739-0.293 2.416-0.788 0.079-0.098 0.134-0.237 0.134-0.389 0-0.040-0.004-0.079-0.011-0.117l-0.824-0.656 0.39-0.21c-0.216-0.164-0.472-0.289-0.751-0.357l-1.199-0.303 0.81-0.915c0.637-0.713 1.12-1.579 1.384-2.535l0.536-2.025 0.87 1.845c0.19 0.418 0.415 0.778 0.682 1.104 0.653-2.334-1.012-4.689-1.792-5.634l-0.285-0.33 0.15-0.405c0.067-0.195 0.105-0.42 0.105-0.654 0-0.54-0.205-1.032-0.542-1.402l-0.208-0.223v-0.3c-0.007-3.646-2.909-6.612-6.53-6.72-0.029-0-0.051-0.001-0.074-0.001-3.604 0-6.525 2.921-6.525 6.525 0 0.079 0.001 0.158 0.004 0.237l-0 0.439-0.375 0.3c-0.122 0.068-0.203 0.195-0.203 0.342 0 0.028 0.003 0.054 0.008 0.080l0.090 0.582-0.36 0.165c-0.008 0.059-0.013 0.126-0.013 0.195s0.005 0.136 0.014 0.203c0.011 0.147 0.049 0.289 0.107 0.42l0.177 0.427-0.315 0.345c-1.278 1.192-2.074 2.885-2.074 4.765 0 0.234 0.012 0.466 0.037 0.694 0.264-0.317 0.498-0.642 0.69-0.993l0.883-1.525 0.51 1.695c0.286 0.948 0.755 1.766 1.37 2.451l0.775 0.864-1.125 0.345c-0.267 0.050-0.504 0.149-0.712 0.289zM3.555 10.2v0z"/></svg>