<?xml version="1.0" standalone="no"?><!DOCTYPE svg PUBLIC "-//W3C//DTD SVG 1.1//EN" "http://www.w3.org/Graphics/SVG/1.1/DTD/svg11.dtd"><svg t="1638419889021" class="icon" viewBox="0 0 1024 1024" version="1.1" xmlns="http://www.w3.org/2000/svg" p-id="8927" xmlns:xlink="http://www.w3.org/1999/xlink" width="200" height="200"><defs><style type="text/css"></style></defs><path d="M981.333333 1024H42.666667a42.666667 42.666667 0 0 1-42.666667-42.666667V42.666667a42.666667 42.666667 0 0 1 42.666667-42.666667h341.333333a42.666667 42.666667 0 0 1 0 85.333333H85.333333v853.333334h853.333334V618.666667a42.666667 42.666667 0 0 1 85.333333 0v362.666666a42.666667 42.666667 0 0 1-42.666667 42.666667z m0-576a42.666667 42.666667 0 0 1-42.666666-42.666667V152.746667L315.306667 796.8a48 48 0 0 1-67.2 0 47.36 47.36 0 0 1 0-66.133333L871.893333 85.333333H640a42.666667 42.666667 0 0 1 0-85.333333h341.333333a42.666667 42.666667 0 0 1 42.666667 42.666667v362.666666a42.666667 42.666667 0 0 1-42.666667 42.666667z" p-id="8928"></path></svg>