<svg width="16px" height="16px" viewBox="0 0 16 16" version="1.1" xmlns="http://www.w3.org/2000/svg" xmlns:xlink="http://www.w3.org/1999/xlink">
    <title>Icon/全部-选中</title>
    <g id="Icon/全部-选中" stroke="none" stroke-width="1" fill="none" fill-rule="evenodd">
        <path d="M14,1 C15.1045695,1 16,1.8954305 16,3 L16,13.4025559 C16,14.5071254 15.1045695,15.4025559 14,15.4025559 L2,15.4025559 C0.8954305,15.4025559 8.94280938e-16,14.5071254 0,13.4025559 L0,3 C-3.57315355e-16,1.8954305 0.8954305,1 2,1 L14,1 Z M6.38977637,5.00000001 L1.5974441,5.00000001 L1.5974441,11.4025559 L3.19488819,11.4025559 L3.19488819,9.00000001 L4.79233228,9.00000001 L4.79233228,11.4025559 L6.38977637,11.4025559 L6.38977637,5.00000001 Z M8.79233227,5.00000001 L7.19488819,5.00000001 L7.19488819,11.4025559 L10.3897764,11.4025559 L10.3897764,10.5974441 L8.79233227,10.5974441 L8.79233227,5.00000001 Z M12.7923323,5.00000001 L11.1948882,5.00000001 L11.1948882,11.4025559 L14.3897764,11.4025559 L14.3897764,10.5974441 L12.7923323,10.5974441 L12.7923323,5.00000001 Z M4.79233226,6.2 L4.79233226,7.79744409 L3.19488818,7.79744409 L3.19488818,6.2 L4.79233226,6.2 Z" id="形状结合" fill="#3A84FF" fill-rule="nonzero"></path>
    </g>
</svg>