<svg viewBox="0 0 1024 1303.273" version="1.1" xmlns="http://www.w3.org/2000/svg"><path  d="M664.4363636363637 0C676.8000000000001 0 688.5818181818182 4.945454545454545 697.3090909090909 13.672727272727274L697.3090909090909 13.672727272727274 1010.3272727272728 326.6909090909091C1019.0545454545455 335.41818181818184 1024 347.3454545454546 1024 359.70909090909095L1024 359.70909090909095 1024 1256.7272727272727C1024 1282.4727272727273 1003.2 1303.2727272727273 977.4545454545455 1303.2727272727273L977.4545454545455 1303.2727272727273 46.54545454545455 1303.2727272727273C20.8 1303.2727272727273 0 1282.4727272727273 0 1256.7272727272727L0 1256.7272727272727 0 46.54545454545455C0 20.8 20.8 0 46.54545454545455 0L46.54545454545455 0ZM721.4545454545455 930.909090909091L302.54545454545456 930.909090909091C289.6922824145455 930.909090909091 279.27272727272725 941.3286446545454 279.27272727272725 954.1818181818182L279.27272727272725 954.1818181818182 279.27272727272725 1000.7272727272727C279.27272727272725 1013.5804462545456 289.6922824145455 1024 302.54545454545456 1024L302.54545454545456 1024 721.4545454545455 1024C734.3077189818182 1024 744.7272727272727 1013.5804462545456 744.7272727272727 1000.7272727272727L744.7272727272727 1000.7272727272727 744.7272727272727 954.1818181818182C744.7272727272727 941.3286446545454 734.3077189818182 930.909090909091 721.4545454545455 930.909090909091L721.4545454545455 930.909090909091ZM628.3636363636364 744.7272727272727L302.54545454545456 744.7272727272727C289.6922824145455 744.7272727272727 279.27272727272725 755.1468264727272 279.27272727272725 768L279.27272727272725 768 279.27272727272725 814.5454545454546C279.27272727272725 827.3986280727273 289.6922824145455 837.8181818181819 302.54545454545456 837.8181818181819L302.54545454545456 837.8181818181819 628.3636363636364 837.8181818181819C641.2168098909091 837.8181818181819 651.6363636363636 827.3986280727273 651.6363636363636 814.5454545454546L651.6363636363636 814.5454545454546 651.6363636363636 768C651.6363636363636 755.1468264727272 641.2168098909091 744.7272727272727 628.3636363636364 744.7272727272727L628.3636363636364 744.7272727272727ZM442.1818181818182 558.5454545454545L302.54545454545456 558.5454545454545C289.6922824145455 558.5454545454545 279.27272727272725 568.9650082909092 279.27272727272725 581.8181818181819L279.27272727272725 581.8181818181819 279.27272727272725 628.3636363636364C279.27272727272725 641.2168098909091 289.6922824145455 651.6363636363636 302.54545454545456 651.6363636363636L302.54545454545456 651.6363636363636 442.1818181818182 651.6363636363636C455.0349903127273 651.6363636363636 465.4545454545455 641.2168098909091 465.4545454545455 628.3636363636364L465.4545454545455 628.3636363636364 465.4545454545455 581.8181818181819C465.4545454545455 568.9650082909092 455.0349903127273 558.5454545454545 442.1818181818182 558.5454545454545L442.1818181818182 558.5454545454545ZM642.9090909090909 107.34545454545454L642.9090909090909 381.0909090909091 916.6545454545455 381.0909090909091 642.9090909090909 107.34545454545454Z"/></svg>