<svg viewBox="0 0 24 24" version="1.1" xmlns="http://www.w3.org/2000/svg"><path d="M10.14 13.5h3.675l-1.86-6.105-1.815 6.105z"/><path d="M12 0c-6.627 0-12 5.373-12 12s5.373 12 12 12c6.627 0 12-5.373 12-12s-5.373-12-12-12zM15.975 18h-0.225c-0.001 0-0.003 0-0.005 0-0.334 0-0.617-0.218-0.714-0.52l-0.751-2.48h-4.5l-0.78 2.475c-0.097 0.328-0.396 0.563-0.75 0.563-0.431 0-0.781-0.35-0.781-0.781 0-0.078 0.011-0.152 0.032-0.223l3.119-10.074c0.23-0.552 0.765-0.933 1.389-0.933 0.584 0 1.089 0.333 1.337 0.82l3.154 10.179c0.027 0.074 0.042 0.159 0.042 0.248 0 0.349-0.239 0.643-0.562 0.726z"/></svg>