

<svg class="bk-icon" style="width: 1em; height: 1em;vertical-align: middle;fill: currentColor;overflow: hidden;" viewBox="0 0 64 64" version="1.1" xmlns="http://www.w3.org/2000/svg">

<g>
	<g>
		<path fill="#737987" d="M56.1,26.4c-1.7-1.7-3.9-3-6.3-3.6C48,13.1,38.7,6.5,28.9,8.2c-7.5,1.3-13.3,7.2-14.6,14.6
			C8.2,24.3,4,29.7,4,35.9v0.6C4,44,10,50,17.4,50H20v-4h-2.6C12.2,46,8,41.8,8,36.6v-0.6c0-5.2,4.2-9.4,9.4-9.4H18
			c0-0.2,0-0.3,0-0.5l0,0c0-0.1,0-0.2,0-0.3v-0.1c0-0.1,0-0.2,0-0.3c0,0,0,0,0-0.1c0-0.1,0-0.2,0-0.3v-0.1c0-0.1,0-0.2,0-0.2
			c0-0.1,0-0.1,0-0.2c0,0,0-0.1,0-0.1c0.1-0.6,0.2-1.3,0.4-1.9l0,0c1.9-7.5,9.6-12,17-10.1c4.9,1.3,8.8,5.1,10.1,10.1l0,0
			c0.2,0.6,0.3,1.3,0.3,1.9c0,0,0,0.1,0,0.1c0,0,0,0.1,0,0.2c0,0.1,0,0.2,0,0.2V25c0,0.1,0,0.2,0,0.2v0.1c0,0.1,0,0.2,0,0.3v0.1
			c0,0.1,0,0.2,0,0.3l0,0c0,0.2,0,0.3,0,0.5h0.6c5.2-0.1,9.5,4.1,9.6,9.3c0,0.1,0,0.1,0,0.2v0.6c0,5.2-4.2,9.4-9.4,9.4l0,0H44v4h2.6
			C54,50,60,44,60,36.6v-0.6C60,32.4,58.6,29,56.1,26.4z"/>
		<path fill="#737987" d="M23.5,37.7 26.3,40.5 30,36.8 30,56 34,56 34,36.8 37.7,40.5 40.5,37.7 32,29.2 		z"/>
	</g>
</g>
</svg>
