<svg viewBox="0 0 24 24" version="1.1" xmlns="http://www.w3.org/2000/svg"><path d="M14.145 8.175c0 0.621-0.524 1.125-1.17 1.125s-1.17-0.504-1.17-1.125c0-0.621 0.524-1.125 1.17-1.125s1.17 0.504 1.17 1.125z"/><path d="M8.37 8.175c0 0.621-0.524 1.125-1.17 1.125s-1.17-0.504-1.17-1.125c0-0.621 0.524-1.125 1.17-1.125s1.17 0.504 1.17 1.125z"/><path d="M16.245 14.16c0 0.373-0.309 0.675-0.69 0.675s-0.69-0.302-0.69-0.675c0-0.373 0.309-0.675 0.69-0.675s0.69 0.302 0.69 0.675z"/><path d="M22.305 19.5c1.026-0.994 1.671-2.377 1.695-3.911-0.108-2.571-1.813-4.712-4.142-5.468 0.133-0.284 0.238-0.616 0.238-0.972 0-0.106-0.009-0.21-0.027-0.31-0.793-4.249-4.978-7.339-9.973-7.339-5.595 0-10.095 3.915-10.095 8.73 0.030 2.521 1.185 4.765 2.986 6.259l-0.391 1.301c-0.051 0.159-0.081 0.343-0.081 0.533 0 0.994 0.806 1.8 1.8 1.8 0.292 0 0.567-0.069 0.811-0.193l2.375-1.24c0.769 0.181 1.653 0.285 2.56 0.285 0.002 0 0.004 0 0.005 0h0.66c0.307-0.018 0.589-0.11 0.833-0.259 1.271 1.724 3.297 2.825 5.58 2.825 0.039 0 0.079-0 0.118-0.001 0.494-0.002 0.981-0.051 1.453-0.143l1.151 0.623c0.233 0.118 0.509 0.188 0.801 0.188 0.994 0 1.8-0.806 1.8-1.8 0-0.19-0.030-0.374-0.084-0.546zM10.095 17.64c-0.004 0-0.009 0-0.014 0-0.957 0-1.882-0.137-2.756-0.392l-0.081 0.017-3.075 1.575 0.825-2.655h-0.075c-2.018-1.22-3.361-3.379-3.42-5.857-0-4.043 3.885-7.328 8.595-7.328 0.134-0.008 0.291-0.012 0.449-0.012 3.828 0 7.045 2.611 7.969 6.15l-0.347 0.057c-4.29 0-7.665 2.625-7.665 6.69 0.012 0.626 0.121 1.223 0.312 1.781zM20.46 19.050v0l0.51 1.59-1.905-0.96h-0.090c-0.495 0.143-1.064 0.225-1.652 0.225-0.004 0-0.009 0-0.013-0-0.138 0.014-0.299 0.022-0.462 0.022-2.51 0-4.577-1.897-4.845-4.335 0.243-2.507 2.322-4.433 4.851-4.433 0.14 0 0.278 0.006 0.415 0.017 0.101-0.012 0.239-0.017 0.379-0.017 2.529 0 4.608 1.926 4.851 4.391-0.040 1.496-0.839 2.776-2.020 3.49z"/><path d="M19.68 14.16c0 0.373-0.309 0.675-0.69 0.675s-0.69-0.302-0.69-0.675c0-0.373 0.309-0.675 0.69-0.675s0.69 0.302 0.69 0.675z"/></svg>