<?xml version="1.0" encoding="UTF-8"?>
<svg width="32px" height="32px" viewBox="0 0 32 32" version="1.1" xmlns="http://www.w3.org/2000/svg" xmlns:xlink="http://www.w3.org/1999/xlink">
    <title>Icon/企业微信</title>
    <g id="Icon/企业微信" stroke="none" stroke-width="1" fill="none" fill-rule="evenodd">
        <path d="M29.3359294,23.4764429 C28.7751962,23.58823 28.2405362,23.8046347 27.7599107,24.1143397 C27.2888896,24.6086498 26.6942134,24.9679615 26.0375449,25.1550172 C26.1250982,24.5671382 26.4165472,24.0305518 26.8568339,23.634027 C27.2255223,23.071286 27.4910896,22.4474057 27.6411074,21.7915831 C27.6390514,20.8593298 28.3928774,20.1017922 29.3251295,20.0992631 C30.2573816,20.0967467 31.0152965,20.8501934 31.0182948,21.7824442 C31.0212754,22.7146949 30.2682081,23.4729868 29.335959,23.4764429 L29.3359294,23.4764429 Z M26.246481,19.4325361 C25.6863647,19.0612384 25.0645767,18.7927026 24.4102633,18.6395161 C23.4776777,18.6395161 22.7216676,17.8835061 22.7216676,16.9509205 C22.7216676,16.0183349 23.4776777,15.2623248 24.4102633,15.2623248 C25.3428489,15.2623248 26.0988589,16.0183349 26.0988589,16.9509205 C26.2088987,17.5125353 26.4226942,18.0487081 26.7292842,18.5319498 C27.2204309,19.0067694 27.5761867,19.6038849 27.7599404,20.2618464 C27.1761687,20.1686921 26.6429208,19.875541 26.251462,19.4325658 L26.2452357,19.4325658 L26.246481,19.4325361 Z M23.4646402,13.4811652 C22.9555681,9.21714473 18.5401898,5.87621409 13.1979858,5.87621409 C7.50675469,5.87621409 2.87624374,9.6636873 2.87624373,14.3217125 C2.96737301,16.93715 4.34839226,19.3375356 6.5636518,20.7308925 C6.92303885,20.9957241 7.2990591,21.2372073 7.68939211,21.4538521 L7.23161259,23.2812937 C7.39669785,23.3588553 7.55680208,23.4413979 7.72565275,23.5127036 L10.0371725,22.3569586 C10.3748738,22.4445118 10.7301273,22.5007855 11.082831,22.5608246 C11.307985,22.6008507 11.533139,22.642122 11.7645489,22.6696362 C13.2060385,22.8513709 14.6686281,22.7674323 16.0798621,22.4219787 C16.1235306,23.0473935 16.2376502,23.6658813 16.4200539,24.2656975 C15.3638303,24.5132982 14.2828101,24.6396087 13.1979562,24.6421797 C12.2247097,24.6366878 11.2546848,24.5297894 10.3035978,24.3232164 L6.10954875,26.417113 C5.78344997,26.5839167 5.38966162,26.5427326 5.10513187,26.3120668 C4.81948324,26.083231 4.69300962,25.7091581 4.78118764,25.3539319 L5.53166141,22.3319645 C2.78152402,20.5830414 1.08249635,17.5798073 1,14.3217125 C1,8.62051926 6.46103684,4 13.1979562,4 C19.5945947,4 24.8330274,8.17021128 25.3433448,13.4711735 C25.0495479,13.4259573 24.7535121,13.3967299 24.4565453,13.3836202 C24.1250702,13.3961321 23.7935951,13.4273821 23.4646106,13.47992 L23.4646402,13.4811652 Z M19.5683554,20.1392481 C20.1299952,20.0266711 20.664091,19.8115384 21.1444037,19.5013513 C21.6160675,19.0077615 22.211169,18.6493125 22.8680148,18.4631643 C22.7784954,19.0490424 22.488497,19.5857203 22.0474806,19.981664 C21.6784996,20.5445193 21.4133196,21.1699339 21.2632367,21.8253532 C21.2646049,22.7574421 20.5104787,23.5143544 19.5783912,23.5164277 C18.6463036,23.5184925 17.8888245,22.7649356 17.886047,21.8328499 C17.8832848,20.9007641 18.636272,20.1427186 19.5683554,20.1392481 L19.5683554,20.1392481 Z M22.6103359,24.201893 C23.1682102,24.5758846 23.7886141,24.8460754 24.4415429,25.0024142 C25.1245161,25.0024142 25.7402393,25.4138273 26.0016019,26.0448123 C26.2629644,26.6757972 26.1184953,27.4020923 25.6355603,27.8850273 C25.1526254,28.3679622 24.4263303,28.5124313 23.7953453,28.2510688 C23.1643604,27.9897063 22.7529473,27.373983 22.7529473,26.6910098 C22.6453251,26.128707 22.4331857,25.5915801 22.1275327,25.10749 C21.6382323,24.6304992 21.2850286,24.0316189 21.104348,23.3726124 C21.6886617,23.4687649 22.2211974,23.7655524 22.6103359,24.2119144 L22.6103359,24.201893 Z" id="形状" fill="#63656E"></path>
    </g>
</svg>